<?xml version="1.0" encoding="utf-8"?>
<!-- Generator: Adobe Illustrator 22.1.0, SVG Export Plug-In . SVG Version: 6.00 Build 0)  -->
<svg version="1.1" id="Layer_1" xmlns="http://www.w3.org/2000/svg" xmlns:xlink="http://www.w3.org/1999/xlink" x="0px" y="0px"
	 viewBox="0 0 256 256" style="enable-background:new 0 0 256 256;" xml:space="preserve">
<style type="text/css">
	.st0{fill:#6f2da8;}
</style>
<path class="st0" d="M83.9,103.5v-9.8h9.8v-4.9c0-5.4,4.4-9.8,9.8-9.8h29.4v34.3l12.3-7.4l12.3,7.4V79h4.9c5.1,0,9.8,4.7,9.8,9.8
	v78.4c0,5.1-4.7,9.8-9.8,9.8h-58.8c-5.1,0-9.8-4.7-9.8-9.8v-4.9h-9.8v-9.8h9.8v-19.6h-9.8v-9.8h9.8v-19.6H83.9 M103.5,123.1h-9.8
	v9.8h9.8V123.1 M103.5,103.5v-9.8h-9.8v9.8H103.5 M103.5,162.3v-9.8h-9.8v9.8H103.5z"/>
</svg>
