<?xml version="1.0" encoding="utf-8"?>
<!-- Generator: Adobe Illustrator 22.1.0, SVG Export Plug-In . SVG Version: 6.00 Build 0)  -->
<svg version="1.1" id="Layer_1" xmlns="http://www.w3.org/2000/svg" xmlns:xlink="http://www.w3.org/1999/xlink" x="0px" y="0px"
	 viewBox="0 0 1200 630" style="enable-background:new 0 0 1200 630;" xml:space="preserve">
<style type="text/css">
	.st0{fill:#ECECEC;}
	.st1{fill:#6F2DA8;}
</style>
<rect class="st0" width="1200" height="630"/>
<path class="st1" d="M518.1,269.5v-18.2h18.2v-9.1c0-10,8.2-18.2,18.2-18.2h54.6v63.7l22.8-13.7l22.8,13.7V224h9.1
	c9.5,0,18.2,8.7,18.2,18.2v145.6c0,9.5-8.7,18.2-18.2,18.2H554.6c-9.5,0-18.2-8.7-18.2-18.2v-9.1h-18.2v-18.2h18.2v-36.4h-18.2
	v-18.2h18.2v-36.4L518.1,269.5 M554.5,305.9h-18.2v18.2h18.2V305.9 M554.5,269.5v-18.2h-18.2v18.2H554.5 M554.5,378.7v-18.2h-18.2
	v18.2H554.5z"/>
</svg>
